<?xml version="1.0" encoding="utf-8"?>
<!-- Generator: Adobe Illustrator 18.0.0, SVG Export Plug-In . SVG Version: 6.00 Build 0)  -->
<!DOCTYPE svg PUBLIC "-//W3C//DTD SVG 1.1//EN" "http://www.w3.org/Graphics/SVG/1.1/DTD/svg11.dtd">
<svg version="1.1" id="Layer_1" xmlns="http://www.w3.org/2000/svg" xmlns:xlink="http://www.w3.org/1999/xlink" x="0px" y="0px"
	 viewBox="0 0 475.3 99.7" enable-background="new 0 0 475.3 99.7" xml:space="preserve">
<g>
	<g>
		<g>
			<polygon fill="#D92F3A" points="61.4,99.7 26.8,59.6 26.8,99.7 0,99.7 0,0 26.8,0 26.8,57.4 60.4,26 94,26 59.4,57.6 98.5,99.7 
							"/>
			<path fill="#D92F3A" d="M475.3,47.5h-22.6v21.9c0,10.3,1.3,13.2,12,13.2c2.5,0,6.4-0.3,10.6-0.9v17.9c-2.5,0.4-9.6,1.8-18,1.8
				c-20.6,0-31.4-8.4-31.4-26.3v-75h26.8v24.2h22.6V47.5z"/>
			<path fill="#D92F3A" d="M129.2,39.2h0.3c6.7-10.4,15.6-16,28.9-16c10.5,0,20.4,5,25.2,16.6c5.8-9.9,15.5-16.6,29.6-16.6
				c15,0,33.1,5.8,33.1,34.6v41.9h-26.8V61c0-11-4.1-19-15-19c-8.9,0-16.3,7.6-16.3,18.5v39.2h-26.8V61.9c0-11-2.3-19.9-14.5-19.9
				c-9.4,0-16.8,8.9-16.8,22.4v35.2h-26.8V41.1V26h26V39.2z"/>
			<g>
				<path fill="#D92F3A" d="M300.3,23.2c-18,0-37.9,5.1-40.2,23.1h27.6c0.7-4.5,4-7.9,13-7.9c10.6,0,15.7,2.9,15.7,14.7H297
					c-26.3,0-41.9,7.9-41.9,25.4c0,15.4,11.8,23.9,31.7,23.9c11.9,0,23.9-3.5,30.3-14.6h0.3v11.9h26V55
					C343.3,30.1,327.7,23.2,300.3,23.2z M291.5,86.3c-7.6,0-11.6-3.1-11.6-7.6c0-6.2,3.8-11.1,21.8-11.1h14.8
					C316.5,75.1,308.9,86.3,291.5,86.3z"/>
			</g>
			<path fill="#D92F3A" d="M413.2,24.2c-17.6,0-24.9,2.8-31.4,16.9h-0.3V25.2h-26v15.1v59.4h26.8V71c0-14.9,9.4-23.3,23.7-23.3
				c3.1,0,13.1,0,13.1,0V24.3L413.2,24.2z"/>
		</g>
		<g>
			<polygon fill="#E31837" points="61.4,99.7 26.8,59.6 26.8,99.7 0,99.7 0,0 26.8,0 26.8,57.4 60.4,26 94,26 59.4,57.6 98.5,99.7 
							"/>
			<path fill="#E31837" d="M475.3,47.5h-22.6v21.9c0,10.3,1.3,13.2,12,13.2c2.5,0,6.4-0.3,10.6-0.9v17.9c-2.5,0.4-9.6,1.8-18,1.8
				c-20.6,0-31.4-8.4-31.4-26.3v-75h26.8v24.2h22.6V47.5z"/>
			<path fill="#E31837" d="M129.2,39.2h0.3c6.7-10.4,15.6-16,28.9-16c10.5,0,20.4,5,25.2,16.6c5.8-9.9,15.5-16.6,29.6-16.6
				c15,0,33.1,5.8,33.1,34.6v41.9h-26.8V61c0-11-4.1-19-15-19c-8.9,0-16.3,7.6-16.3,18.5v39.2h-26.8V61.9c0-11-2.3-19.9-14.5-19.9
				c-9.4,0-16.8,8.9-16.8,22.4v35.2h-26.8V41.1V26h26V39.2z"/>
			<g>
				<path fill="#E31837" d="M300.3,23.2c-18,0-37.9,5.1-40.2,23.1h27.6c0.7-4.5,4-7.9,13-7.9c10.6,0,15.7,2.9,15.7,14.7H297
					c-26.3,0-41.9,7.9-41.9,25.4c0,15.4,11.8,23.9,31.7,23.9c11.9,0,23.9-3.5,30.3-14.6h0.3v11.9h26V55
					C343.3,30.1,327.7,23.2,300.3,23.2z M291.5,86.3c-7.6,0-11.6-3.1-11.6-7.6c0-6.2,3.8-11.1,21.8-11.1h14.8
					C316.5,75.1,308.9,86.3,291.5,86.3z"/>
			</g>
			<path fill="#E31837" d="M413.2,24.2c-17.6,0-24.9,2.8-31.4,16.9h-0.3V25.2h-26v15.1v59.4h26.8V71c0-14.9,9.4-23.3,23.7-23.3
				c3.1,0,13.1,0,13.1,0V24.3L413.2,24.2z"/>
		</g>
	</g>
</g>
</svg>
