<?xml version="1.0" encoding="utf-8"?>
<!-- Generator: Adobe Illustrator 18.0.0, SVG Export Plug-In . SVG Version: 6.00 Build 0)  -->
<!DOCTYPE svg PUBLIC "-//W3C//DTD SVG 1.1//EN" "http://www.w3.org/Graphics/SVG/1.1/DTD/svg11.dtd">
<svg version="1.1" id="Layer_1" xmlns="http://www.w3.org/2000/svg" xmlns:xlink="http://www.w3.org/1999/xlink" x="0px" y="0px"
	 viewBox="0 0 428 92" enable-background="new 0 0 428 92" xml:space="preserve">
<g>
	<g>
		<path fill="#F58023" d="M46.3,19.2L45.1,19c0-0.1,1.1-11.4-5.5-12.3c-2-0.3-3.7,0.2-4.8,1.2c-2.3,2.1-2.7,6.5-2.6,9.7l-1.2,0
			c-0.1-3.5,0.3-8.2,3-10.7c1.5-1.3,3.4-1.9,5.8-1.6C47.6,6.5,46.4,18.6,46.3,19.2"/>
		<polygon fill="#F36E39" points="57.9,76.4 38.1,80.7 38.1,21.5 45.7,19.4 57.9,18.7 		"/>
		<path fill="#C42032" d="M57.9,18.4l-16-2.6c0,0-2,1.7-3.8,1.3C36.2,16.7,36,15,36,15l-12.4-2.6l-6.4,2.1H3.3l17.2,19.6l37.4-5.8
			V18.4z"/>
		<polygon fill="#F58023" points="38.1,80.3 38.1,21.5 57.9,18.4 57.9,76.1 		"/>
		<path fill="#F58023" d="M29.9,23.2l-1.2,0c0-0.1,0.4-14.2-5.8-15c-2.4-0.3-4.2,0.1-5.6,1.4c-2.2,2-3,6.2-2.5,12.4L13.5,22
			C13,15.4,14,11,16.5,8.7c1.6-1.5,3.8-2.1,6.6-1.7C30.4,7.9,30,22.6,29.9,23.2"/>
		<path fill="#FCB918" d="M38.1,21.5l-13.4-2.1c0,0-1.2,1.5-3.3,1.1c-2.1-0.5-2.7-1.7-2.7-1.7L3.3,14.5L3.1,66.6l35,14V21.5z"/>
	</g>
	<g>
		<g>
			<path fill="#919195" d="M70.7,72.7L70.7,72.7c0-4.9,3.7-8.9,8.8-8.9c3.2,0,5.2,1.2,6.8,2.9l-2.4,2.6c-1.2-1.3-2.4-2.1-4.4-2.1
				c-2.8,0-4.9,2.4-4.9,5.4v0.1c0,3,2.1,5.5,5.1,5.5c1.8,0,3.2-0.9,4.4-2.1l2.3,2.3c-1.7,1.9-3.6,3.2-6.9,3.2
				C74.4,81.5,70.7,77.5,70.7,72.7z"/>
			<path fill="#919195" d="M87.2,72.7L87.2,72.7c0-4.9,3.8-8.9,9-8.9c5.2,0,9,3.9,9,8.8v0.1c0,4.8-3.8,8.8-9.1,8.8
				C91.1,81.5,87.2,77.5,87.2,72.7z M101.4,72.7L101.4,72.7c0-3-2.1-5.5-5.2-5.5c-3.1,0-5.1,2.4-5.1,5.4v0.1c0,3,2.1,5.5,5.2,5.5
				C99.4,78.1,101.4,75.6,101.4,72.7z"/>
			<path fill="#919195" d="M107.8,74.9V64.2h3.9v9.6c0,2.6,1.3,4.1,3.6,4.1c2.2,0,3.8-1.6,3.8-4.2v-9.6h3.9v16.9h-3.9v-2.6
				c-1.1,1.6-2.7,3-5.3,3C110,81.4,107.8,78.9,107.8,74.9z"/>
			<path fill="#919195" d="M126.6,64.2h3.9V67c1.3-1.8,3-3.2,5.7-3.2c4,0,7.9,3.2,7.9,8.8v0.1c0,5.6-3.8,8.8-7.9,8.8
				c-2.8,0-4.6-1.4-5.7-3v7.8h-3.9V64.2z M140.2,72.7L140.2,72.7c0-3.3-2.2-5.5-4.8-5.5c-2.6,0-4.9,2.2-4.9,5.4v0.1
				c0,3.3,2.3,5.4,4.9,5.4C138,78.1,140.2,76,140.2,72.7z"/>
			<path fill="#919195" d="M145.9,72.7L145.9,72.7c0-4.9,3.8-8.9,9-8.9c5.2,0,9,3.9,9,8.8v0.1c0,4.8-3.8,8.8-9.1,8.8
				C149.7,81.5,145.9,77.5,145.9,72.7z M160.1,72.7L160.1,72.7c0-3-2.1-5.5-5.2-5.5c-3.1,0-5.1,2.4-5.1,5.4v0.1c0,3,2.1,5.5,5.2,5.5
				C158.1,78.1,160.1,75.6,160.1,72.7z"/>
			<path fill="#919195" d="M166.7,64.2h3.9v2.6c1.1-1.6,2.7-3,5.3-3c3.8,0,6,2.6,6,6.5v10.8H178v-9.6c0-2.6-1.3-4.1-3.6-4.1
				c-2.2,0-3.8,1.6-3.8,4.2v9.6h-3.9V64.2z"/>
			<path fill="#919195" d="M183.9,78.9l1.7-2.6c1.8,1.4,3.8,2.1,5.5,2.1c1.7,0,2.6-0.7,2.6-1.8v-0.1c0-1.3-1.8-1.8-3.8-2.4
				c-2.5-0.7-5.3-1.7-5.3-5V69c0-3.2,2.7-5.2,6-5.2c2.1,0,4.4,0.7,6.2,1.9l-1.5,2.8c-1.6-1-3.4-1.6-4.8-1.6c-1.5,0-2.4,0.7-2.4,1.7
				v0.1c0,1.2,1.8,1.7,3.8,2.4c2.5,0.8,5.3,1.9,5.3,4.9v0.1c0,3.6-2.8,5.3-6.3,5.3C188.7,81.4,186,80.5,183.9,78.9z"/>
		</g>
		<g>
			<g>
				<path fill="#919195" d="M70.1,44l3.9-4.7c2.7,2.2,5.5,3.6,9,3.6c2.7,0,4.3-1.1,4.3-2.8v-0.1c0-1.7-1-2.5-6-3.8
					c-6-1.5-9.9-3.2-9.9-9.2V27c0-5.4,4.4-9,10.5-9c4.4,0,8.1,1.4,11.1,3.8l-3.4,5c-2.7-1.8-5.3-3-7.8-3c-2.5,0-3.9,1.2-3.9,2.6v0.1
					c0,2,1.3,2.6,6.5,3.9c6.1,1.6,9.5,3.8,9.5,9v0.1c0,6-4.5,9.3-11,9.3C78.3,48.8,73.7,47.2,70.1,44"/>
				<polygon fill="#919195" points="96.2,18.4 102.8,18.4 102.8,30.3 114.9,30.3 114.9,18.4 121.5,18.4 121.5,48.4 114.9,48.4 
					114.9,36.3 102.8,36.3 102.8,48.4 96.2,48.4 				"/>
				<path fill="#919195" d="M124,33.5L124,33.5c0-8.6,6.7-15.6,16-15.6c9.3,0,15.9,6.9,15.9,15.4v0.1c0,8.5-6.7,15.5-16,15.5
					C130.6,48.9,124,42,124,33.5 M149,33.5L149,33.5c0-5.2-3.8-9.5-9.1-9.5c-5.3,0-9,4.2-9,9.3v0.1c0,5.1,3.8,9.4,9.1,9.4
					C145.3,42.8,149,38.6,149,33.5"/>
				<path fill="#919195" d="M158.3,18.4h12.3c7.2,0,11.5,4.2,11.5,10.4v0.1c0,6.9-5.4,10.5-12.1,10.5h-5v9h-6.6V18.4z M170.2,33.5
					c3.3,0,5.2-2,5.2-4.5v-0.1c0-3-2.1-4.5-5.4-4.5h-5.1v9.2H170.2z"/>
				<polygon fill="#FCB918" points="198.8,36.6 187.3,18.4 195,18.4 202.2,30.4 209.5,18.4 217,18.4 205.4,36.4 205.4,48.4 
					198.8,48.4 				"/>
				<path fill="#FCB918" d="M213.7,33.5L213.7,33.5c0-8.6,6.7-15.6,16-15.6c9.3,0,15.9,6.9,15.9,15.4v0.1c0,8.5-6.7,15.5-16,15.5
					C220.4,48.9,213.7,42,213.7,33.5 M238.8,33.5L238.8,33.5c0-5.2-3.8-9.5-9.1-9.5c-5.3,0-9,4.2-9,9.3v0.1c0,5.1,3.8,9.4,9.1,9.4
					C235.1,42.8,238.8,38.6,238.8,33.5"/>
				<path fill="#FCB918" d="M248.3,35.5V18.4h6.6v17c0,4.9,2.4,7.4,6.5,7.4c4,0,6.5-2.4,6.5-7.2V18.4h6.6v16.9
					c0,9.1-5.1,13.5-13.2,13.5C253.2,48.9,248.3,44.4,248.3,35.5"/>
				<path fill="#FCB918" d="M277.7,18.4h13.7c3.8,0,6.8,1.1,8.7,3c1.7,1.7,2.6,4,2.6,6.9v0.1c0,4.8-2.6,7.9-6.4,9.3l7.3,10.7h-7.7
					l-6.4-9.6h-0.1h-5.1v9.6h-6.6V18.4z M291,33c3.2,0,5.1-1.7,5.1-4.2v-0.1c0-2.8-2-4.3-5.2-4.3h-6.6V33H291z"/>
				<polygon fill="#F05333" points="389.7,36.6 378.2,18.4 385.9,18.4 393,30.4 400.3,18.4 407.8,18.4 396.3,36.4 396.3,48.4 
					389.7,48.4 				"/>
				<path fill="#F05333" d="M370.7,18.3h-6.2l-12.8,30.1h6.7l2.7-6.7h12.7l2.7,6.7h6.9L370.7,18.3z M363.5,35.8l4-9.7l4,9.7H363.5z"
					/>
				<polygon fill="#F05333" points="350.2,18.4 344,38.7 337.3,18.4 331.5,18.4 324.8,38.7 318.6,18.4 311.5,18.4 321.7,48.4 
					327.6,48.4 334.3,29 341,48.4 346.9,48.4 357.1,18.4 				"/>
			</g>
			<g>
				<path fill="#F05333" d="M410.9,24.2l0.5-0.6c0.7,0.6,1.4,1,2.3,1c0.9,0,1.5-0.5,1.5-1.2v0c0-0.6-0.3-1-1.8-1.3
					c-1.6-0.3-2.3-0.8-2.3-2v0c0-1.1,0.9-1.9,2.2-1.9c1,0,1.7,0.3,2.4,0.8l-0.4,0.6c-0.6-0.5-1.3-0.7-2-0.7c-0.9,0-1.5,0.5-1.5,1.1
					v0c0,0.6,0.4,1,1.9,1.3c1.5,0.3,2.2,0.9,2.2,1.9v0c0,1.2-1,1.9-2.3,1.9C412.6,25.3,411.7,24.9,410.9,24.2z"/>
				<path fill="#F05333" d="M417.8,18.4h0.8l2.5,3.7l2.5-3.7h0.8v6.8h-0.8v-5.5l-2.5,3.7h0l-2.5-3.6v5.5h-0.8V18.4z"/>
			</g>
		</g>
	</g>
</g>
</svg>
