<?xml version="1.0" encoding="utf-8"?>
<!-- Generator: Adobe Illustrator 18.0.0, SVG Export Plug-In . SVG Version: 6.00 Build 0)  -->
<!DOCTYPE svg PUBLIC "-//W3C//DTD SVG 1.1//EN" "http://www.w3.org/Graphics/SVG/1.1/DTD/svg11.dtd">
<svg version="1.1" id="Layer_1" xmlns="http://www.w3.org/2000/svg" xmlns:xlink="http://www.w3.org/1999/xlink" x="0px" y="0px"
	 viewBox="0 0 285.3 72.8" enable-background="new 0 0 285.3 72.8" xml:space="preserve">
<g>
	<g>
		<path fill="#1C3F94" d="M28.5,72.8C11.3,72.8,0.4,63.2,0,47.6L0,46h7.9L8,47.3c0.7,11.1,8.8,18.2,20.5,18.2
			c4.6,0,19.6-0.9,19.6-12.6c0-9.4-9.2-11.3-19.8-13.4l-1.8-0.4C13.8,36.5,2.4,33,2.4,18.7C2.4,1.3,22,0,28,0
			c16.6,0,26.2,8.3,26.2,22.8v1.5h-8l0-1.4C46.1,10,36.2,7.3,28,7.3c-8.5,0-17.7,3-17.7,11.3c0,8.9,9.5,10.8,19.5,12.9l1.5,0.3
			c13.6,2.7,24.8,6.1,24.8,21.1C56.1,71.4,35,72.8,28.5,72.8L28.5,72.8z"/>
		<path fill="#1C3F94" d="M251,72.8c-17.2,0-28.1-9.7-28.5-25.2l0-1.6h7.9l0.1,1.3c0.7,11.1,8.8,18.2,20.5,18.2
			c4.6,0,19.6-0.9,19.6-12.6c0-9.4-9.2-11.3-19.8-13.4l-1.8-0.4c-12.7-2.6-24.2-6.1-24.2-20.4C224.9,1.3,244.5,0,250.5,0
			c16.6,0,26.2,8.3,26.2,22.8v1.5h-8l0-1.4c-0.1-12.9-10-15.6-18.2-15.6c-8.5,0-17.7,3-17.7,11.3c0,8.9,9.5,10.8,19.5,12.9l1.5,0.3
			c13.6,2.7,24.8,6.1,24.8,21.1C278.6,71.4,257.5,72.8,251,72.8L251,72.8z"/>
		<path fill="#1C3F94" d="M189.8,71.3V1.6h8v10.6c4.6-6.5,13.6-11,23.1-11c0.4,0,0.9,0,1.3,0l1.5,0.1v8.1l-1.5-0.2
			c-1-0.1-1.8-0.2-2.6-0.2c-3.2,0-9.3,0.8-14.7,6.2c-4.9,4.9-7.1,8.7-7.1,18.1v38H189.8z"/>
		<path fill="#1C3F94" d="M112.9,46l-0.1,0.9c-2.2,11.7-10.6,18.6-22.4,18.6c-6.1,0-11.4-2.1-15.3-6.1c-4.8-4.8-7.5-12.3-7.7-20.8
			h53.8l0.1-1.5c0.6-11.7-2.6-21.9-9-28.5C106.8,2.9,99.5,0,90.4,0c-21.4,0-31,18.9-31,37.6c0,21.4,12.2,35.3,31,35.3
			c16.8,0,27.6-9,30.3-25.6l0.2-1.2H112.9z M90.4,7.3c14.1,0,22,11.8,22.8,23.9H67.6C69.1,19.1,77.2,7.3,90.4,7.3z"/>
		<path fill="#1C3F94" d="M155.3,0c-16.7,0-26.3,8.4-27,23.7l0,0.7h8l0-0.7c0.6-10.5,7.3-16.3,19-16.3c14.1,0,17,9.1,17,11.6
			c0,9.9,0,10.7-21.5,12.4c-17.2,1.2-25.9,8.4-25.9,21.2c0,13.1,8.5,20.3,23.8,20.3c11.5,0,19.3-5.2,23.5-10.9v9.4h8V18.9
			C180.1,6.7,171.3,0,155.3,0z M172.1,44.3c0,0.2-0.7,21.2-23.4,21.2c-9.7,0-16-5.1-16-13c0-8.4,4.9-12.4,16.9-13.9
			c2.2-0.3,4.5-0.5,6.8-0.6c6-0.5,11.8-1,15.6-3V44.3z"/>
	</g>
	<g>
		<path fill="#1C3F94" d="M281,1.6c2.3,0,4.3,1.8,4.3,4.2c0,2.4-1.9,4.3-4.3,4.3c-2.3,0-4.3-1.8-4.3-4.3
			C276.7,3.4,278.7,1.6,281,1.6z M281,9.5c2,0,3.5-1.6,3.5-3.7c0-2-1.5-3.6-3.5-3.6c-2,0-3.5,1.6-3.5,3.6C277.5,7.9,279,9.5,281,9.5
			z M279.4,3.3h1.9c1.2,0,1.7,0.5,1.7,1.4c0,0.9-0.6,1.3-1.3,1.4l1.4,2.2h-0.8l-1.4-2.1h-0.8v2.1h-0.8V3.3z M280.1,5.5h0.8
			c0.7,0,1.3,0,1.3-0.8c0-0.7-0.6-0.8-1.1-0.8h-1V5.5z"/>
	</g>
</g>
<g>
	<g>
		<path fill="#0056A7" d="M28.5,206.8c-17.2,0-28.1-9.7-28.5-25.2l0-1.6h7.9l0.1,1.3c0.7,11.1,8.8,18.2,20.5,18.2
			c4.6,0,19.6-0.9,19.6-12.6c0-9.4-9.2-11.3-19.8-13.4l-1.8-0.4c-12.7-2.6-24.2-6.1-24.2-20.4c0-17.3,19.6-18.7,25.7-18.7
			c16.6,0,26.2,8.3,26.2,22.8v1.5h-8l0-1.4c-0.1-12.9-10-15.6-18.2-15.6c-8.5,0-17.7,3-17.7,11.3c0,8.9,9.5,10.8,19.5,12.9l1.5,0.3
			c13.6,2.7,24.8,6.1,24.8,21.1C56.1,205.3,35,206.8,28.5,206.8L28.5,206.8z"/>
		<path fill="#0056A7" d="M251,206.8c-17.2,0-28.1-9.7-28.5-25.2l0-1.6h7.9l0.1,1.3c0.7,11.1,8.8,18.2,20.5,18.2
			c4.6,0,19.6-0.9,19.6-12.6c0-9.4-9.2-11.3-19.8-13.4L249,173c-12.7-2.6-24.2-6.1-24.2-20.4c0-17.3,19.6-18.7,25.7-18.7
			c16.6,0,26.2,8.3,26.2,22.8v1.5h-8l0-1.4c-0.1-12.9-10-15.6-18.2-15.6c-8.5,0-17.7,3-17.7,11.3c0,8.9,9.5,10.8,19.5,12.9l1.5,0.3
			c13.6,2.7,24.8,6.1,24.8,21.1C278.6,205.3,257.5,206.8,251,206.8L251,206.8z"/>
		<path fill="#0056A7" d="M189.8,205.2v-69.7h8v10.6c4.6-6.5,13.6-11,23.1-11c0.4,0,0.9,0,1.3,0l1.5,0.1v8.1l-1.5-0.2
			c-1-0.1-1.8-0.2-2.6-0.2c-3.2,0-9.3,0.8-14.7,6.2c-4.9,4.9-7.1,8.7-7.1,18.1v38H189.8z"/>
		<path fill="#0056A7" d="M112.9,180l-0.1,0.9c-2.2,11.6-10.6,18.6-22.4,18.6c-6.1,0-11.4-2.1-15.3-6.1c-4.8-4.8-7.5-12.3-7.7-20.8
			h53.8l0.1-1.5c0.6-11.7-2.6-21.9-9-28.5c-5.5-5.7-12.8-8.6-21.9-8.6c-21.4,0-31,18.9-31,37.6c0,21.4,12.2,35.3,31,35.3
			c16.8,0,27.6-9,30.3-25.6l0.2-1.2H112.9z M90.4,141.3c14.1,0,22,11.8,22.8,23.9H67.6C69.1,153.1,77.2,141.3,90.4,141.3z"/>
		<path fill="#0056A7" d="M155.3,133.9c-16.7,0-26.3,8.4-27,23.7l0,0.7h8l0-0.7c0.6-10.5,7.3-16.3,19-16.3c14.1,0,17,9.1,17,11.6
			c0,9.9,0,10.7-21.5,12.4c-17.2,1.2-25.9,8.4-25.9,21.2c0,13.1,8.5,20.3,23.8,20.3c11.5,0,19.3-5.2,23.5-10.9v9.4h8v-52.4
			C180.1,140.6,171.3,133.9,155.3,133.9z M172.1,178.2c0,0.2-0.7,21.2-23.4,21.2c-9.7,0-16-5.1-16-13c0-8.4,4.9-12.4,16.9-13.9
			c2.2-0.3,4.5-0.5,6.8-0.6c6-0.5,11.8-1,15.6-3V178.2z"/>
	</g>
	<g>
		<path fill="#0056A7" d="M281,135.5c2.3,0,4.3,1.8,4.3,4.2c0,2.4-1.9,4.3-4.3,4.3c-2.3,0-4.3-1.8-4.3-4.3
			C276.7,137.3,278.7,135.5,281,135.5z M281,143.4c2,0,3.5-1.6,3.5-3.7c0-2-1.5-3.6-3.5-3.6c-2,0-3.5,1.6-3.5,3.6
			C277.5,141.8,279,143.4,281,143.4z M279.4,137.3h1.9c1.2,0,1.7,0.5,1.7,1.4c0,0.9-0.6,1.3-1.3,1.4l1.4,2.2h-0.8l-1.4-2.1h-0.8v2.1
			h-0.8V137.3z M280.1,139.5h0.8c0.7,0,1.3,0,1.3-0.8c0-0.7-0.6-0.8-1.1-0.8h-1V139.5z"/>
	</g>
</g>
<g>
	<g>
		<path fill="#0557A6" d="M28.5,340.7c-17.2,0-28.1-9.7-28.5-25.2l0-1.6h7.9l0.1,1.3c0.7,11.1,8.8,18.2,20.5,18.2
			c4.6,0,19.6-0.9,19.6-12.6c0-9.4-9.2-11.3-19.8-13.4l-1.8-0.4c-12.7-2.6-24.2-6.1-24.2-20.4c0-17.3,19.6-18.7,25.7-18.7
			c16.6,0,26.2,8.3,26.2,22.8v1.5h-8l0-1.4c-0.1-12.9-10-15.6-18.2-15.6c-8.5,0-17.7,3-17.7,11.3c0,8.9,9.5,10.8,19.5,12.9l1.5,0.3
			c13.6,2.7,24.8,6.1,24.8,21.1C56.1,339.3,35,340.7,28.5,340.7L28.5,340.7z"/>
		<path fill="#0557A6" d="M251,340.7c-17.2,0-28.1-9.7-28.5-25.2l0-1.6h7.9l0.1,1.3c0.7,11.1,8.8,18.2,20.5,18.2
			c4.6,0,19.6-0.9,19.6-12.6c0-9.4-9.2-11.3-19.8-13.4l-1.8-0.4c-12.7-2.6-24.2-6.1-24.2-20.4c0-17.3,19.6-18.7,25.7-18.7
			c16.6,0,26.2,8.3,26.2,22.8v1.5h-8l0-1.4c-0.1-12.9-10-15.6-18.2-15.6c-8.5,0-17.7,3-17.7,11.3c0,8.9,9.5,10.8,19.5,12.9l1.5,0.3
			c13.6,2.7,24.8,6.1,24.8,21.1C278.6,339.3,257.5,340.7,251,340.7L251,340.7z"/>
		<path fill="#0557A6" d="M189.8,339.1v-69.7h8V280c4.6-6.5,13.6-11,23.1-11c0.4,0,0.9,0,1.3,0l1.5,0.1v8.1l-1.5-0.2
			c-1-0.1-1.8-0.2-2.6-0.2c-3.2,0-9.3,0.8-14.7,6.2c-4.9,4.9-7.1,8.7-7.1,18.1v38H189.8z"/>
		<path fill="#0557A6" d="M112.9,313.9l-0.1,0.9c-2.2,11.7-10.6,18.6-22.4,18.6c-6.1,0-11.4-2.1-15.3-6.1
			c-4.8-4.8-7.5-12.3-7.7-20.8h53.8l0.1-1.5c0.6-11.7-2.6-21.9-9-28.5c-5.5-5.7-12.8-8.6-21.9-8.6c-21.4,0-31,18.9-31,37.6
			c0,21.4,12.2,35.3,31,35.3c16.8,0,27.6-9,30.3-25.6l0.2-1.2H112.9z M90.4,275.2c14.1,0,22,11.8,22.8,23.9H67.6
			C69.1,287,77.2,275.2,90.4,275.2z"/>
		<path fill="#0557A6" d="M155.3,267.9c-16.7,0-26.3,8.4-27,23.7l0,0.7h8l0-0.7c0.6-10.5,7.3-16.3,19-16.3c14.1,0,17,9.1,17,11.6
			c0,9.9,0,10.7-21.5,12.4c-17.2,1.2-25.9,8.4-25.9,21.2c0,13.1,8.5,20.3,23.8,20.3c11.5,0,19.3-5.2,23.5-10.9v9.4h8v-52.4
			C180.1,274.6,171.3,267.9,155.3,267.9z M172.1,312.2c0,0.2-0.7,21.2-23.4,21.2c-9.7,0-16-5.1-16-13c0-8.4,4.9-12.4,16.9-13.9
			c2.2-0.3,4.5-0.5,6.8-0.6c6-0.5,11.8-1,15.6-3V312.2z"/>
	</g>
	<g>
		<path fill="#0557A6" d="M281,269.4c2.3,0,4.3,1.8,4.3,4.2c0,2.4-1.9,4.3-4.3,4.3c-2.3,0-4.3-1.8-4.3-4.3
			C276.7,271.3,278.7,269.4,281,269.4z M281,277.3c2,0,3.5-1.6,3.5-3.7c0-2-1.5-3.6-3.5-3.6c-2,0-3.5,1.6-3.5,3.6
			C277.5,275.8,279,277.3,281,277.3z M279.4,271.2h1.9c1.2,0,1.7,0.5,1.7,1.4c0,0.9-0.6,1.3-1.3,1.4l1.4,2.2h-0.8l-1.4-2.1h-0.8v2.1
			h-0.8V271.2z M280.1,273.4h0.8c0.7,0,1.3,0,1.3-0.8c0-0.7-0.6-0.8-1.1-0.8h-1V273.4z"/>
	</g>
</g>
<g>
	<g>
		<path d="M28.5,474.6c-17.2,0-28.1-9.7-28.5-25.2l0-1.6h7.9l0.1,1.3c0.7,11.1,8.8,18.2,20.5,18.2c4.6,0,19.6-0.9,19.6-12.6
			c0-9.4-9.2-11.3-19.8-13.4l-1.8-0.4c-12.7-2.6-24.2-6.1-24.2-20.4c0-17.3,19.6-18.7,25.7-18.7c16.6,0,26.2,8.3,26.2,22.8v1.5h-8
			l0-1.4c-0.1-12.9-10-15.6-18.2-15.6c-8.5,0-17.7,3-17.7,11.3c0,8.9,9.5,10.8,19.5,12.9l1.5,0.3c13.6,2.7,24.8,6.1,24.8,21.1
			C56.1,473.2,35,474.6,28.5,474.6L28.5,474.6z"/>
		<path d="M251,474.6c-17.2,0-28.1-9.7-28.5-25.2l0-1.6h7.9l0.1,1.3c0.7,11.1,8.8,18.2,20.5,18.2c4.6,0,19.6-0.9,19.6-12.6
			c0-9.4-9.2-11.3-19.8-13.4l-1.8-0.4c-12.7-2.6-24.2-6.1-24.2-20.4c0-17.3,19.6-18.7,25.7-18.7c16.6,0,26.2,8.3,26.2,22.8v1.5h-8
			l0-1.4c-0.1-12.9-10-15.6-18.2-15.6c-8.5,0-17.7,3-17.7,11.3c0,8.9,9.5,10.8,19.5,12.9l1.5,0.3c13.6,2.7,24.8,6.1,24.8,21.1
			C278.6,473.2,257.5,474.6,251,474.6L251,474.6z"/>
		<path d="M189.8,473.1v-69.7h8V414c4.6-6.5,13.6-11,23.1-11c0.4,0,0.9,0,1.3,0l1.5,0.1v8.1l-1.5-0.2c-1-0.1-1.8-0.2-2.6-0.2
			c-3.2,0-9.3,0.8-14.7,6.2c-4.9,4.9-7.1,8.7-7.1,18.1v38H189.8z"/>
		<path d="M112.9,447.8l-0.1,0.9c-2.2,11.7-10.6,18.6-22.4,18.6c-6.1,0-11.4-2.1-15.3-6.1c-4.8-4.8-7.5-12.3-7.7-20.8h53.8l0.1-1.5
			c0.6-11.7-2.6-21.9-9-28.5c-5.5-5.7-12.8-8.6-21.9-8.6c-21.4,0-31,18.9-31,37.6c0,21.4,12.2,35.3,31,35.3c16.8,0,27.6-9,30.3-25.6
			l0.2-1.2H112.9z M90.4,409.1c14.1,0,22,11.8,22.8,23.9H67.6C69.1,420.9,77.2,409.1,90.4,409.1z"/>
		<path d="M155.3,401.8c-16.7,0-26.3,8.4-27,23.7l0,0.7h8l0-0.7c0.6-10.5,7.3-16.3,19-16.3c14.1,0,17,9.1,17,11.6
			c0,9.9,0,10.7-21.5,12.4c-17.2,1.2-25.9,8.4-25.9,21.2c0,13.1,8.5,20.3,23.8,20.3c11.5,0,19.3-5.2,23.5-10.9v9.4h8v-52.4
			C180.1,408.5,171.3,401.8,155.3,401.8z M172.1,446.1c0,0.2-0.7,21.2-23.4,21.2c-9.7,0-16-5.1-16-13c0-8.4,4.9-12.4,16.9-13.9
			c2.2-0.3,4.5-0.5,6.8-0.6c6-0.5,11.8-1,15.6-3V446.1z"/>
	</g>
	<g>
		<path d="M281,403.4c2.3,0,4.3,1.8,4.3,4.2c0,2.4-1.9,4.3-4.3,4.3c-2.3,0-4.3-1.8-4.3-4.3C276.7,405.2,278.7,403.4,281,403.4z
			 M281,411.3c2,0,3.5-1.6,3.5-3.7c0-2-1.5-3.6-3.5-3.6c-2,0-3.5,1.6-3.5,3.6C277.5,409.7,279,411.3,281,411.3z M279.4,405.1h1.9
			c1.2,0,1.7,0.5,1.7,1.4c0,0.9-0.6,1.3-1.3,1.4l1.4,2.2h-0.8l-1.4-2.1h-0.8v2.1h-0.8V405.1z M280.1,407.3h0.8c0.7,0,1.3,0,1.3-0.8
			c0-0.7-0.6-0.8-1.1-0.8h-1V407.3z"/>
	</g>
</g>
<g>
	<g>
		<path fill="#FFFFFF" d="M28.5,608.6c-17.2,0-28.1-9.7-28.5-25.2l0-1.6h7.9l0.1,1.3c0.7,11.1,8.8,18.2,20.5,18.2
			c4.6,0,19.6-0.9,19.6-12.6c0-9.4-9.2-11.3-19.8-13.4l-1.8-0.4c-12.7-2.6-24.2-6.1-24.2-20.4c0-17.3,19.6-18.7,25.7-18.7
			c16.6,0,26.2,8.3,26.2,22.8v1.5h-8l0-1.4c-0.1-12.9-10-15.6-18.2-15.6c-8.5,0-17.7,3-17.7,11.3c0,8.9,9.5,10.8,19.5,12.9l1.5,0.3
			c13.6,2.7,24.8,6.1,24.8,21.1C56.1,607.1,35,608.6,28.5,608.6L28.5,608.6z"/>
		<path fill="#FFFFFF" d="M251,608.6c-17.2,0-28.1-9.7-28.5-25.2l0-1.6h7.9l0.1,1.3c0.7,11.1,8.8,18.2,20.5,18.2
			c4.6,0,19.6-0.9,19.6-12.6c0-9.4-9.2-11.3-19.8-13.4l-1.8-0.4c-12.7-2.6-24.2-6.1-24.2-20.4c0-17.3,19.6-18.7,25.7-18.7
			c16.6,0,26.2,8.3,26.2,22.8v1.5h-8l0-1.4c-0.1-12.9-10-15.6-18.2-15.6c-8.5,0-17.7,3-17.7,11.3c0,8.9,9.5,10.8,19.5,12.9l1.5,0.3
			c13.6,2.7,24.8,6.1,24.8,21.1C278.6,607.1,257.5,608.6,251,608.6L251,608.6z"/>
		<path fill="#FFFFFF" d="M189.8,607v-69.7h8v10.6c4.6-6.5,13.6-11,23.1-11c0.4,0,0.9,0,1.3,0l1.5,0.1v8.1l-1.5-0.2
			c-1-0.1-1.8-0.2-2.6-0.2c-3.2,0-9.3,0.8-14.7,6.2c-4.9,4.9-7.1,8.7-7.1,18.1v38H189.8z"/>
		<path fill="#FFFFFF" d="M112.9,581.8l-0.1,0.9c-2.2,11.7-10.6,18.6-22.4,18.6c-6.1,0-11.4-2.1-15.3-6.1
			c-4.8-4.8-7.5-12.3-7.7-20.8h53.8l0.1-1.5c0.6-11.7-2.6-21.9-9-28.5c-5.5-5.7-12.8-8.6-21.9-8.6c-21.4,0-31,18.9-31,37.6
			c0,21.4,12.2,35.3,31,35.3c16.8,0,27.6-9,30.3-25.6l0.2-1.2H112.9z M90.4,543.1c14.1,0,22,11.8,22.8,23.9H67.6
			C69.1,554.9,77.2,543.1,90.4,543.1z"/>
		<path fill="#FFFFFF" d="M155.3,535.7c-16.7,0-26.3,8.4-27,23.7l0,0.7h8l0-0.7c0.6-10.5,7.3-16.3,19-16.3c14.1,0,17,9.1,17,11.6
			c0,9.9,0,10.7-21.5,12.4c-17.2,1.2-25.9,8.4-25.9,21.2c0,13.1,8.5,20.3,23.8,20.3c11.5,0,19.3-5.2,23.5-10.9v9.4h8v-52.4
			C180.1,542.4,171.3,535.7,155.3,535.7z M172.1,580c0,0.2-0.7,21.2-23.4,21.2c-9.7,0-16-5.1-16-13c0-8.4,4.9-12.4,16.9-13.9
			c2.2-0.3,4.5-0.5,6.8-0.6c6-0.5,11.8-1,15.6-3V580z"/>
	</g>
	<g>
		<path fill="#FFFFFF" d="M281,537.3c2.3,0,4.3,1.8,4.3,4.2c0,2.4-1.9,4.3-4.3,4.3c-2.3,0-4.3-1.8-4.3-4.3
			C276.7,539.1,278.7,537.3,281,537.3z M281,545.2c2,0,3.5-1.6,3.5-3.7c0-2-1.5-3.6-3.5-3.6c-2,0-3.5,1.6-3.5,3.6
			C277.5,543.6,279,545.2,281,545.2z M279.4,539.1h1.9c1.2,0,1.7,0.5,1.7,1.4c0,0.9-0.6,1.3-1.3,1.4l1.4,2.2h-0.8l-1.4-2.1h-0.8v2.1
			h-0.8V539.1z M280.1,541.3h0.8c0.7,0,1.3,0,1.3-0.8c0-0.7-0.6-0.8-1.1-0.8h-1V541.3z"/>
	</g>
</g>
<text transform="matrix(1 0 0 1 60.664 122.5547)" fill="#939598" font-family="'HelveticaNeue'" font-size="13.8903">C: 100, M: 74, Y: 00, K: 00</text>
<text transform="matrix(1 0 0 1 83.4511 255.8955)" fill="#939598" font-family="'HelveticaNeue'" font-size="13.8903">R: 0, G: 85, B: 167 </text>
<text transform="matrix(1 0 0 1 123.351 389.2368)" fill="#939598" font-family="'HelveticaNeue'" font-size="13.8903">Black </text>
<text transform="matrix(1 0 0 1 91.7089 522.5776)" fill="#939598" font-family="'HelveticaNeue'" font-size="13.8903">Reversed White </text>
<text transform="matrix(1 0 0 1 112.1484 -10.7866)" fill="#939598" font-family="'HelveticaNeue'" font-size="13.8903">PMS 072 </text>
<path fill="#009DDC" d="M302.4-48.3c0,2-1.6,3.6-3.6,3.6H-13.6c-2,0-3.6-1.6-3.6-3.6v-28c0-2,1.6-3.6,3.6-3.6h312.4
	c2,0,3.6,1.6,3.6,3.6V-48.3z"/>
<text transform="matrix(1 0 0 1 23.5595 -59.0161)"><tspan x="0" y="0" fill="#FFFFFF" font-family="'HelveticaNeue'" font-size="11.803">Large, minimum size: 2&quot;</tspan><tspan x="127" y="0" fill="#FFFFFF" font-family="'HelveticaNeue'" font-size="13.8903"> wide, from s to s.</tspan></text>
</svg>
